<svg xmlns="http://www.w3.org/2000/svg" viewBox="0 0 1600 900" preserveAspectRatio="xMidYMid slice">
  <defs><linearGradient id="hg" x1="0" y1="0" x2="0" y2="1"><stop offset="0" stop-color="#D7192F"/><stop offset="1" stop-color="#4A4A4A"/></linearGradient><radialGradient id="glow" cx="0.7" cy="0.3" r="0.8"><stop offset="0" stop-color="#ffffff" stop-opacity="0.25"/><stop offset="1" stop-color="#ffffff" stop-opacity="0"/></radialGradient></defs>
  <rect width="1600" height="900" fill="url(#hg)"/>
  <rect width="1600" height="900" fill="url(#glow)"/>
  <g opacity="0.18" fill="#ffffff">
    <circle cx="200" cy="700" r="120"/><circle cx="1400" cy="200" r="160"/><circle cx="300" cy="150" r="60"/>
  </g>
  <g opacity="0.9" fill="#ffffff" transform="translate(0,520)">
    <g transform="translate(420,0)"><circle cx="0" cy="60" r="34" fill="#fff"/><rect x="-42" y="100" width="84" height="180" rx="30" fill="#fff"/></g>
    <g transform="translate(720,20)"><circle cx="0" cy="60" r="34" fill="#fff"/><rect x="-42" y="100" width="84" height="180" rx="30" fill="#fff"/></g>
    <g transform="translate(1020,0)"><circle cx="0" cy="60" r="34" fill="#fff"/><rect x="-42" y="100" width="84" height="180" rx="30" fill="#fff"/></g>
    <g transform="translate(1300,20)"><circle cx="0" cy="60" r="34" fill="#fff"/><rect x="-42" y="100" width="84" height="180" rx="30" fill="#fff"/></g>
  </g>
  <g opacity="0.25" stroke="#fff" stroke-width="6" fill="none">
    <path d="M0,820 Q400,760 800,820 T1600,820"/>
  </g></svg>
